<?xml version="1.0" encoding="UTF-8" standalone="no"?>

<!-- This is an official AFL Team logo, they own all rights to this, please do not sue me -->

<svg width="80px" height="50px" viewBox="0 0 80 50" version="1.1" xmlns="http://www.w3.org/2000/svg" xmlns:xlink="http://www.w3.org/1999/xlink">
    <!-- Generator: Sketch 41.2 (35397) - http://www.bohemiancoding.com/sketch -->
    <title>Brisbane_Lions</title>
    <desc>Created with Sketch.</desc>
    <defs>
        <path d="M6.48691358,1.09509804 C5.46765432,1.09509804 4.56888889,0.82745098 3.97037037,0.394117647 C1.81135802,0.821568627 0.259753086,1.76764706 0.0474074074,2.9 L12.9353086,2.9 C12.7130864,1.76764706 11.1624691,0.821568627 9.00345679,0.394117647 C8.40395062,0.82745098 7.50617284,1.09509804 6.48691358,1.09509804 Z" id="path-1"></path>
        <path d="M0.0286419753,0.408823529 C0.236049383,1.98137255 3.04790123,3.22745098 6.48691358,3.22745098 C9.93580247,3.22745098 12.7466667,1.98137255 12.9402469,0.408823529 L0.0286419753,0.408823529 Z" id="path-3"></path>
        <path d="M8.79604938,0.608823529 C8.76740741,0.608823529 8.76740741,0.643137255 8.7437037,0.643137255 C8.58864198,0.643137255 8.4582716,0.757843137 8.3762963,0.839215686 C8.00888889,1.09117647 7.74716049,1.42647059 7.4054321,1.67745098 C6.92148148,2.03921569 6.54518519,2.54313725 6.00888889,2.73529412 C5.60790123,2.85098039 5.17728395,2.90196078 4.81185185,3.10392157 C4.60839506,3.2127451 3.95654321,3.24019608 3.75407407,3.26666667 C3.56839506,3.29313725 3.36691358,3.27941176 3.16839506,3.26568627 C2.75061728,3.23627451 2.33679012,3.20784314 2.07308642,3.54803922 C1.87358025,3.77352941 1.67111111,3.99705882 1.43506173,4.21764706 C1.43506173,4.24705882 1.4054321,4.30098039 1.4054321,4.32843137 C1.30074074,4.4127451 1.27506173,4.54803922 1.18814815,4.63823529 C1.04888889,4.75098039 0.782222222,4.8872549 0.670617284,5.02745098 C0.502716049,5.33529412 0.652839506,5.61372549 0.527407407,5.92156863 C0.502716049,6.03235294 0.527407407,6.17156863 0.527407407,6.28333333 C0.527407407,6.60098039 1.1545679,6.47941176 1.47259259,6.42254902 C1.55061728,6.42254902 1.5891358,6.25392157 1.69481481,6.30784314 C2.00987654,6.53333333 2.37728395,6.44803922 2.72888889,6.42254902 C2.77728395,6.42254902 2.89283951,6.36666667 2.86419753,6.25392157 C2.84049383,6.16666667 2.89283951,6.05882353 2.86419753,5.9754902 C2.83555556,5.94901961 2.81185185,5.89019608 2.77728395,5.8627451 C2.75358025,5.75098039 2.75358025,5.61372549 2.72888889,5.50196078 C2.67061728,5.2245098 2.61333333,4.91666667 2.75358025,4.69215686 C2.77728395,4.60588235 2.83555556,4.52058824 2.89283951,4.46960784 C3.01432099,4.38333333 3.0617284,4.27156863 3.21283951,4.24705882 C3.23654321,4.83137255 3.0617284,5.44705882 3.29382716,6.00588235 C3.32345679,6.05882353 3.32345679,6.20098039 3.40641975,6.25392157 C3.81135802,6.44803922 4.00888889,6.50686275 4.4108642,6.39607843 C4.52641975,6.36666667 4.81185185,6.0872549 4.89283951,6.03235294 C5.06271605,5.89019608 5.37679012,5.92156863 5.63160494,5.89019608 C6.00888889,5.89019608 6.38617284,5.8627451 6.74765432,5.94901961 C6.92148148,5.9754902 6.97975309,5.92156863 7.1545679,5.8627451 C7.1545679,5.8627451 7.26518519,5.67058824 7.26518519,5.64313725 C7.26518519,5.57941176 7.61283951,5.65 7.61283951,5.65 C7.84888889,5.7627451 8.05234568,5.83627451 8.3762963,5.61372549 C8.51160494,5.52156863 8.48691358,5.33529412 8.60246914,5.2754902 C8.90469136,5.08039216 9.21481481,5.12254902 9.52395062,5.16372549 C9.74419753,5.19313725 9.96246914,5.22254902 10.1777778,5.16666667 C10.3417284,5.10980392 10.4335802,4.85882353 10.6271605,4.75098039 C10.742716,4.69215686 10.8345679,4.69215686 10.9461728,4.69215686 C11.1012346,4.69215686 11.2503704,4.73627451 11.3758025,4.68235294 C12.1046914,4.44019608 12.6212346,4.50392157 13.491358,4.45980392 C13.8538272,4.44019608 14.3654321,4.10098039 14.2350617,4.14215686 C14.3654321,4.04901961 14.4582716,3.90196078 14.5540741,3.79019608 C14.8207407,3.47254902 15.1239506,3.26666667 15.3175309,2.93137255 C15.3560494,2.86078431 15.4093827,2.82352941 15.4281481,2.7627451 C15.4528395,2.65294118 15.4676543,2.54313725 15.3945679,2.46764706 C15.2780247,2.31862745 15.0903704,2.30196078 14.9560494,2.17058824 C14.7723457,2.01960784 14.4237037,1.87352941 14.3071605,1.96372549 C14.0424691,2.31862745 13.7530864,2.61862745 13.4528395,2.93137255 C13.3609877,3.00980392 13.2691358,3.10392157 13.1298765,3.13529412 C12.96,3.17647059 12.7871605,3.23529412 12.6212346,3.24705882 C12.0039506,3.30588235 11.4044444,3.32352941 10.7723457,3.24705882 C10.6558025,3.23529412 10.5165432,3.2127451 10.4148148,3.11764706 C10.2795062,3.0245098 10.3861728,2.86078431 10.3516049,2.73137255 C10.2795062,2.48627451 10.2409877,2.24215686 10.1777778,2.00294118 C10.1540741,1.83137255 10.0908642,1.69019608 9.97530864,1.53823529 C9.91604938,1.45980392 9.8162963,1.40588235 9.76691358,1.31568627 C9.69975309,1.18333333 9.68395062,1.01470588 9.62765432,0.882352941 C9.5545679,0.757843137 9.41530864,0.682352941 9.28888889,0.626470588 C9.2237037,0.602941176 9.15654321,0.596078431 9.08740741,0.596078431 C8.99160494,0.596078431 8.89382716,0.608823529 8.79604938,0.608823529 Z" id="path-5"></path>
        <path d="M4.63308642,0.939215686 C4.51753086,0.973529412 4.44444444,1.04901961 4.33876543,1.06568627 C4.19851852,1.10294118 4.05728395,1.14215686 3.96641975,1.23333333 C3.73925926,1.43627451 3.54666667,1.64313725 3.28098765,1.83235294 C3.10518519,1.94019608 3.10518519,2.29901961 3.29975309,2.33039216 C3.56938272,2.40686275 3.88444444,2.38921569 4.15407407,2.27647059 C4.32395062,2.22254902 4.56,2.20098039 4.70419753,2.27647059 C4.85925926,2.35 4.80592593,2.57254902 4.77234568,2.74117647 C4.77234568,2.8 4.66765432,2.85392157 4.58864198,2.87058824 C4.43061728,2.87843137 4.31012346,2.86960784 4.1945679,2.86176471 C4.03061728,2.85 3.88049383,2.83921569 3.6562963,2.87058824 C3.61876543,2.87058824 3.23654321,2.87058824 3.20197531,2.85392157 C3.08740741,2.8 3.03407407,2.83627451 2.89382716,2.83627451 C2.80197531,2.83627451 2.75358025,2.88823529 2.69037037,2.91470588 C2.3762963,3.19803922 2.11654321,3.53039216 1.71950617,3.69705882 C1.63358025,3.75588235 1.52197531,3.75588235 1.43111111,3.81176471 C1.28493827,3.92254902 1.17925926,4.06470588 1.06271605,4.20392157 C0.83654321,4.37254902 0.522469136,4.5627451 0.265679012,4.5627451 C0.0345679012,4.98333333 0.183703704,5.26176471 0.208395062,5.70882353 C0.208395062,5.7627451 0.430617284,6.40588235 0.556049383,6.62843137 C0.638024691,6.76568627 0.661728395,6.93627451 0.661728395,7.10196078 C0.661728395,7.43529412 0.754567901,7.68235294 1.0162963,7.85294118 C1.14567901,7.96666667 1.41135802,7.93431373 1.6,7.88039216 C1.63358025,7.88039216 1.6908642,7.85294118 1.74419753,7.85294118 C1.80641975,7.8245098 2.13135802,7.78921569 2.15407407,7.76078431 C2.33679012,7.75 2.47802469,7.75588235 2.60839506,7.76176471 C2.82765432,7.77254902 3.01530864,7.78137255 3.3145679,7.71078431 C3.7491358,7.60392157 3.96641975,7.42745098 4.56,7.40882353 C4.66765432,7.40392157 4.78320988,7.48137255 4.88,7.55490196 C4.93728395,7.63039216 4.9945679,7.72352941 5.0291358,7.81960784 C5.06765432,7.92941176 5.00938272,8.0754902 5.06765432,8.18823529 C5.12098765,8.31764706 5.12098765,8.46764706 5.13975309,8.59411765 C5.18419753,8.81960784 5.23654321,9.06078431 4.93728395,9.24607843 C4.78320988,9.46960784 4.65185185,9.65490196 4.5708642,9.91666667 C4.5362963,9.9872549 4.44444444,9.9872549 4.38222222,10.0098039 C4.19851852,10.0833333 3.98617284,10.0833333 3.80246914,10.1715686 C3.54666667,10.304902 3.29975309,10.5137255 3.10518519,10.7333333 C3.04888889,10.8068627 3.06864198,10.9921569 3.12592593,11.1068627 C3.18419753,11.2196078 3.3382716,11.2931373 3.39061728,11.4029412 C3.44,11.4784314 3.70567901,11.8901961 3.80246914,12.022549 C3.90814815,12.1539216 4.41975309,12.6333333 4.50271605,12.7088235 C4.5708642,12.7480392 4.63308642,12.8039216 4.70419753,12.8411765 C4.82074074,12.8921569 4.96098765,12.9529412 5.06765432,12.8921569 C5.08740741,12.8921569 5.12098765,12.8411765 5.12098765,12.8039216 C5.18419753,12.5235294 5.10617284,12.2421569 5.18419753,11.9627451 C5.2217284,11.85 5.32345679,11.7578431 5.44888889,11.5754902 C5.47259259,11.5382353 6.13530864,11.3666667 6.49185185,11.2 C6.55012346,11.1833333 6.85530864,11.1264706 6.91259259,11.1068627 C7.1782716,10.9921569 7.2217284,10.9921569 7.4637037,10.8254902 C7.77283951,10.6058824 8,10.3254902 8.14419753,9.9872549 C8.14419753,9.95392157 8.26567901,9.50588235 8.26567901,9.46960784 C8.26567901,9.24607843 8.18864198,9.03921569 8.14419753,8.83921569 C8.07703704,8.43039216 8.20246914,8.05882353 8.12938272,7.64803922 C8.11555556,7.53823529 8,7.44509804 7.88444444,7.42745098 C7.78666667,7.41078431 7.72938272,7.42941176 7.66814815,7.44901961 C7.59703704,7.47156863 7.52197531,7.49215686 7.37185185,7.45980392 C7.28987654,7.44705882 7.15851852,7.24215686 7.12098765,7.16666667 C7.03901235,7 7.1782716,6.6627451 7.24049383,6.47941176 C7.28987654,6.2372549 7.38962963,6.03431373 7.48740741,5.80980392 C7.57925926,5.60392157 7.57925926,5.5872549 7.70962963,5.40392157 C8.07703704,4.91666667 8.50765432,4.54803922 8.87407407,4.06470588 C9.01432099,3.88039216 9.0962963,3.65294118 9.31358025,3.52647059 C9.47753086,3.41176471 9.69481481,3.3745098 9.89333333,3.29901961 C9.95654321,3.2627451 10.4632099,3.03921569 10.6804938,2.96568627 C10.9985185,2.87058824 11.3234568,2.8 11.6079012,2.62843137 C12.0671605,2.36666667 12.2795062,1.68039216 12.1106173,1.23333333 C12.028642,1.04901961 11.8064198,0.956862745 11.5930864,0.939215686 C11.5308642,0.929411765 11.5160494,1.06568627 11.5022222,1.12254902 C11.4587654,1.38235294 11.6661728,1.55294118 11.5496296,1.79019608 C11.5160494,1.86862745 11.3234568,1.92156863 11.2306173,1.94019608 C11.1348148,1.9754902 10.8691358,1.92156863 10.8691358,1.88529412 C10.8355556,1.83235294 10.7723457,1.7754902 10.7140741,1.71666667 C10.5501235,1.56960784 10.3180247,1.56960784 10.1293827,1.64313725 C10.0958025,1.66078431 9.89333333,1.92156863 9.84,1.92156863 C9.63753086,1.9754902 9.55950617,2.01568627 9.36691358,2.1245098 C9.0962963,2.27647059 8.83555556,2.14411765 8.50765432,2.08823529 C8.36148148,2.05686275 8.24592593,1.90490196 8.11555556,1.80980392 C7.97135802,1.71666667 7.81135802,1.55294118 7.69580247,1.42058824 C7.65234568,1.4 7.34716049,1.34509804 7.31358025,1.34509804 C7.10716049,1.33137255 6.95604938,1.34117647 6.81876543,1.35 C6.60641975,1.36470588 6.42074074,1.37745098 6.10666667,1.31176471 C6,1.29117647 5.90814815,1.19607843 5.83111111,1.10294118 C5.69580247,0.988235294 5.52197531,0.844117647 5.35407407,0.824509804 C5.32049383,0.818627451 5.28790123,0.816666667 5.25432099,0.816666667 C5.05185185,0.816666667 4.8454321,0.905882353 4.63308642,0.939215686 Z" id="path-7"></path>
        <path d="M0.731851852,0.438235294 C0.731851852,0.438235294 0.847407407,0.939215686 1.29777778,1.07156863 C1.29777778,1.07156863 1.52987654,0.679411765 1.41333333,0.345098039 L0.731851852,0.438235294 Z" id="path-9"></path>
        <path d="M2.75753086,0.839215686 C2.6745679,0.853921569 2.58765432,0.883333333 2.51061728,0.935294118 C2.43358025,1.02254902 2.32197531,1.1 2.25481481,1.21862745 C2.20641975,1.35784314 2.28839506,1.53333333 2.20641975,1.69215686 C2.20641975,1.70686275 2.16296296,1.73333333 2.13037037,1.74607843 C2.08098765,1.79019608 2.05728395,1.85588235 2.01876543,1.90294118 C1.96049383,1.95196078 1.90716049,2.02745098 1.81037037,2.04019608 C1.68888889,2.05392157 1.57333333,2.04019608 1.44395062,2.04019608 C1.4291358,2.04019608 1.4291358,2.01078431 1.41432099,2.01078431 C1.3037037,2.02745098 1.25037037,1.90294118 1.19703704,1.84117647 C1.1437037,1.8 0.969876543,1.78333333 0.949135802,1.8245098 C0.853333333,1.97647059 0.699259259,2.08823529 0.53037037,2.15882353 C0.510617284,2.17941176 0.510617284,2.21568627 0.491851852,2.23529412 C0.264691358,2.28921569 0.167901235,2.55098039 0.298271605,2.70294118 C0.35654321,2.7754902 0.510617284,2.7754902 0.53037037,2.86568627 C0.583703704,3.10980392 0.491851852,3.36666667 0.57382716,3.5754902 C0.645925926,3.7627451 0.815802469,3.90784314 0.969876543,4.05588235 C0.979753086,4.09313725 1.0617284,4.18529412 1.08148148,4.2254902 C1.24049383,4.37647059 1.16839506,4.24215686 1.30765432,4.41078431 C1.32740741,4.46764706 1.53975309,4.65588235 1.59802469,4.67254902 C1.85481481,4.70588235 2.10567901,4.69509804 2.35753086,4.68235294 C2.53234568,4.6745098 2.70814815,4.66666667 2.88691358,4.67254902 C2.92641975,4.67254902 2.88691358,4.72941176 2.92641975,4.72941176 C3.0617284,4.74607843 3.17728395,4.77745098 3.24049383,4.87843137 C3.32740741,5.0245098 3.3945679,5.15490196 3.52987654,5.25 C3.72246914,5.35784314 3.93580247,5.34215686 4.13925926,5.37941176 C4.45234568,5.41568627 4.75654321,5.4745098 5.03703704,5.34215686 C5.09037037,5.32156863 5.15753086,5.2872549 5.20592593,5.26666667 C5.26419753,5.2127451 5.31753086,5.17156863 5.37975309,5.11764706 C5.43802469,5.0245098 5.4962963,4.93627451 5.56938272,4.89509804 C5.65925926,4.86078431 5.81530864,4.89509804 5.91703704,4.86078431 C6.08592593,4.77745098 6.13925926,4.55686275 6.30814815,4.48627451 C6.52049383,4.39215686 6.78617284,4.41078431 7.04197531,4.48627451 C7.14765432,4.50392157 7.27802469,4.50392157 7.32148148,4.63431373 C7.35012346,4.74901961 7.47259259,4.86078431 7.52,4.97058824 C7.64148148,5.15490196 7.6217284,5.35784314 7.6217284,5.56470588 C7.64148148,5.60196078 7.65925926,5.65784314 7.65925926,5.6754902 C7.65925926,6.14411765 8.12839506,6.42058824 8.5145679,6.56960784 C8.58765432,6.58921569 8.64987654,6.70196078 8.70814815,6.72156863 C8.89185185,6.8 9.02320988,6.79117647 9.16839506,6.78137255 C9.28888889,6.7745098 9.42024691,6.76666667 9.60197531,6.80980392 C9.84790123,6.82352941 9.96444444,7.09019608 9.88740741,7.25882353 C9.80049383,7.46470588 9.49037037,7.5745098 9.37481481,7.77745098 C9.31654321,7.87352941 9.26320988,7.98627451 9.24444444,8.09509804 C9.18716049,8.50392157 9.09037037,8.89215686 9.20592593,9.30588235 C9.24444444,9.4745098 9.31654321,9.63823529 9.4182716,9.80686275 C9.51901235,9.99215686 9.92987654,10.1637255 10.1135802,10.2127451 C10.317037,10.2696078 10.4711111,10.2696078 10.5925926,10.3078431 C10.7377778,10.3470588 10.8632099,10.4715686 10.9491358,10.6235294 C10.9925926,10.6794118 11.1476543,10.9901961 11.2246914,11.3147059 C11.2246914,11.3147059 11.2444444,11.645098 11.2967901,11.9411765 C11.2967901,11.9411765 11.3698765,12.2205882 11.0409877,12.6284314 C11.0409877,12.6284314 10.5925926,13.0754902 10.6795062,13.65 C10.6795062,13.65 10.7279012,14.0441176 10.477037,14.4176471 L10.2824691,15.2519608 C10.2824691,15.2519608 10.2291358,15.5892157 9.92592593,15.7921569 C9.92592593,15.7921569 9.4617284,16.0147059 9.4182716,16.572549 C9.4182716,16.572549 9.20592593,16.9872549 9.18716049,17.8068627 C9.18716049,17.8068627 9.16148148,18.2294118 9.39358025,18.3078431 C9.39358025,18.3078431 9.60197531,18.5098039 9.39358025,18.5843137 C9.39358025,18.5843137 9.09037037,18.7696078 8.91555556,19.0676471 C8.91555556,19.0676471 8.46123457,19.5323529 7.9308642,19.1401961 C7.75703704,19.0166667 7.75703704,18.7166667 7.87259259,18.4735294 C7.94469136,18.345098 7.85777778,18.1362745 7.9308642,17.9705882 C7.96444444,17.895098 8.06024691,17.8215686 8.16197531,17.7872549 C8.36444444,17.6745098 8.49580247,17.4294118 8.5145679,17.2245098 C8.53925926,16.8137255 8.67061728,16.4254902 8.82469136,16.0529412 C8.89185185,15.8843137 9.07160494,15.8117647 9.12493827,15.6627451 C9.20592593,15.4970588 9.27802469,15.3107843 9.34123457,15.1411765 C9.4182716,14.9137255 9.34123457,14.6764706 9.39358025,14.4352941 C9.4182716,14.3205882 9.4182716,14.0441176 9.49037037,13.9480392 C9.5782716,13.8 9.67802469,13.8382353 9.75703704,13.672549 C9.77580247,13.6352941 9.88740741,13.5029412 9.90617284,13.4666667 C10.002963,13.3539216 10.0701235,13.2617647 10.1135802,13.1323529 C10.1580247,12.9823529 10.1817284,12.6401961 10.1866667,12.6284314 C10.457284,12.295098 10.2488889,11.8509804 10.1580247,11.4764706 C10.1135802,11.4029412 10.0701235,11.3127451 10.022716,11.2539216 C9.86765432,11.1078431 9.75703704,10.9343137 9.56246914,10.8264706 C9.44296296,10.7754902 9.34123457,10.7352941 9.26320988,10.6401961 C9.16148148,10.5303922 9.09037037,10.4382353 8.97382716,10.3421569 C8.82469136,10.2343137 8.64987654,10.1588235 8.57679012,10.0117647 C8.53925926,9.97352941 8.5145679,9.91666667 8.5145679,9.88039216 C8.49580247,9.58431373 8.46123457,9.30588235 8.5145679,8.98529412 C8.57679012,8.75098039 8.57679012,8.52647059 8.63012346,8.30098039 C8.67061728,8.2254902 8.78617284,8.16862745 8.78617284,8.09509804 C8.82469136,7.83627451 8.86814815,7.5745098 8.74666667,7.33333333 C8.64987654,7.11078431 8.3891358,7.13235294 8.16197531,7.11078431 C7.96444444,6.85 7.61185185,6.86568627 7.32148148,6.8872549 C7.23061728,6.90392157 7.17234568,7.05196078 7.07160494,7.07352941 C6.9254321,7.09019608 6.78617284,7.09019608 6.63604938,7.13235294 C6.44740741,7.20098039 6.01382716,7.44803922 5.97037037,7.46470588 C5.81530864,7.55784314 5.64148148,7.5745098 5.4962963,7.66862745 C5.41432099,7.70490196 5.31753086,7.74313725 5.22567901,7.74313725 C4.9017284,7.74313725 4.65580247,8.03921569 4.46222222,8.30098039 C4.37530864,8.43235294 4.28839506,8.57745098 4.18765432,8.69019608 C4.06123457,8.81666667 3.93580247,8.93333333 3.85876543,9.08039216 C3.78666667,9.28627451 3.82419753,9.45196078 3.68888889,9.63823529 C3.55358025,9.80686275 3.38469136,9.93431373 3.28790123,10.104902 C3.24049383,10.195098 3.14469136,10.2421569 3.10024691,10.327451 C2.96,10.5843137 3.01925926,10.7529412 3.14864198,10.8088235 C3.30271605,10.9284314 3.46666667,10.9156863 3.63851852,10.9029412 C3.73037037,10.8960784 3.82518519,10.8892157 3.92098765,10.9019608 C4.00395062,10.9166667 4.08987654,10.9588235 4.10074074,11.0509804 C4.10074074,11.2372549 4.13925926,11.422549 4.08987654,11.5872549 C4.00395062,11.7921569 3.92098765,11.9215686 3.89728395,12.1245098 C3.87753086,12.4647059 3.82419753,12.5941176 3.82419753,13.1676471 C3.82419753,13.4666667 3.85876543,13.7656863 3.80148148,14.0607843 C3.80148148,14.0803922 3.47259259,14.5813725 3.32740741,14.7872549 C3.13876543,14.9931373 2.5017284,15.3470588 2.43358025,15.3833333 C2.32197531,15.4401961 2.03358025,15.55 1.90123457,15.6264706 C1.82518519,15.6627451 1.59802469,15.7715686 1.46271605,15.8117647 C1.2691358,15.8627451 1.21679012,16.0343137 1.16839506,16.2176471 C1.12493827,16.6696078 1.25530864,17.1117647 1.12493827,17.5617647 C1.03703704,17.8068627 1.02222222,18.0823529 1.09530864,18.3245098 C1.13876543,18.4372549 1.32740741,18.4156863 1.43802469,18.5098039 C1.48246914,18.5245098 1.50024691,18.5843137 1.53975309,18.622549 C1.64641975,18.8058824 1.52,19.0343137 1.59802469,19.2196078 C1.67012346,19.4029412 1.55358025,19.6637255 1.7037037,19.8284314 C1.75209877,19.9039216 1.90123457,19.8872549 1.97432099,19.8529412 C2.07111111,19.8117647 2.07111111,19.6637255 2.15308642,19.5901961 C2.24,19.4588235 2.5254321,19.422549 2.64098765,19.5735294 C2.68444444,19.6637255 2.68444444,19.7764706 2.64098765,19.8529412 C2.60740741,19.9431373 2.43358025,19.9990196 2.40888889,20.1068627 C2.33580247,20.5196078 2.37530864,20.65 2.40888889,21.0607843 C2.56888889,21.3754902 2.40888889,21.6372549 2.81975309,21.8960784 C3.08148148,22.072549 3.25037037,22.0431373 3.46271605,22.3803922 C3.51012346,22.4588235 3.63654321,22.7892157 3.64641975,22.8843137 C3.67506173,22.995098 3.72246914,23.272549 3.74222222,23.4990196 C3.77185185,23.7764706 3.78666667,24.1117647 4.05135802,24.2764706 C4.31703704,24.4078431 4.60641975,24.3539216 4.86320988,24.4294118 C5.09037037,24.4803922 5.31753086,24.4666667 5.55358025,24.4294118 C5.64148148,24.4078431 6.04641975,24.2215686 6.15703704,24.1656863 C6.23506173,24.1117647 6.4237037,23.85 6.44740741,23.7960784 C6.53925926,23.5176471 6.72790123,23.0147059 6.82469136,22.9578431 C6.99259259,22.8254902 7.06074074,22.6058824 7.24049383,22.5107843 C7.27802469,22.4931373 7.85777778,22.3803922 8.08098765,22.4931373 C8.36444444,22.6205882 8.68938272,22.5686275 8.99259259,22.5460784 C9.11407407,22.5460784 9.90617284,22.4509804 9.98320988,22.4705882 C10.1767901,22.527451 10.3753086,22.527451 10.5777778,22.5107843 C10.7269136,22.1588235 10.7950617,21.8088235 10.877037,21.4392157 C10.8355556,21.6176471 11.0528395,19.445098 11.2780247,18.7872549 C11.2967901,18.7333333 11.465679,18.2901961 11.4854321,18.1 C11.4854321,18.0411765 11.6207407,17.8068627 11.6207407,17.7872549 C11.6790123,17.7088235 11.8479012,17.6147059 11.862716,17.6147059 C12.0118519,17.6147059 12.1718519,17.5980392 12.297284,17.6323529 C12.317037,17.6323529 12.5333333,17.7872549 12.6261728,17.8215686 C12.9491358,17.9117647 13.2493827,17.8607843 13.577284,17.8382353 C13.654321,17.8382353 13.7125926,17.7284314 13.7323457,17.6745098 C13.8241975,17.4666667 13.7659259,17.2637255 13.8241975,17.0411765 C13.8765432,16.7794118 13.7797531,16.4960784 13.8765432,16.2588235 C13.9634568,16.0343137 14.051358,15.8117647 14.1619753,15.5892157 C14.2014815,15.4970588 14.4809877,15.1411765 14.5046914,15.0117647 C14.5195062,14.9137255 14.5866667,14.7068627 14.5975309,14.6039216 C14.6597531,14.3401961 14.5975309,14.1852941 14.7269136,13.9480392 C14.7891358,13.8647059 14.857284,13.7823529 14.9303704,13.7117647 C15.0548148,13.5990196 15.2009877,13.5029412 15.36,13.422549 C15.4558025,13.3519608 15.5041975,13.2392157 15.5288889,13.1411765 C15.5525926,12.877451 15.577284,12.5990196 15.5041975,12.3294118 C15.437037,12.0558824 15.3353086,11.8019608 15.1279012,11.5941176 C15.1032099,11.5676471 14.8424691,11.3568627 14.8335802,11.3303922 C14.6498765,11.1911765 14.6261728,10.8823529 14.5679012,10.6754902 C14.5195062,10.4794118 14.5580247,10.1411765 14.6498765,9.96372549 C14.6834568,9.89215686 14.8720988,9.63039216 14.9204938,9.55784314 C14.9590123,9.46176471 15.1861728,9.33921569 15.2918519,9.31078431 C15.6592593,9.24901961 15.7758025,9.24901961 16.1185185,9.26862745 C16.1422222,9.26862745 16.3209877,9.13921569 16.3407407,9.12647059 C16.3595062,9.09803922 16.3545679,9.00196078 16.3407407,8.93333333 C16.3209877,8.90490196 16.2725926,8.90490196 16.2725926,8.89019608 C16.2390123,8.85098039 16.2103704,8.8627451 16.1906173,8.83431373 L16.157037,8.83431373 C15.997037,8.6254902 15.7511111,8.47254902 15.8241975,8.19313725 C15.6641975,8.05686275 15.577284,7.84411765 15.6592593,7.63333333 C15.6839506,7.56470588 15.9061728,7.56470588 15.837037,7.40098039 C15.7511111,7.13921569 15.3501235,7.27156863 15.1140741,7.13431373 C15.1032099,7.12254902 14.7753086,6.83627451 14.7417284,6.82352941 C14.5679012,6.6745098 14.4809877,6.46078431 14.3071605,6.31078431 C14.2014815,6.24019608 14.1037037,6.2245098 14.0019753,6.15686275 C13.8864198,6.06176471 13.7797531,5.97843137 13.7323457,5.84901961 C13.6691358,5.69705882 13.6592593,5.52843137 13.6977778,5.3745098 C13.7214815,5.30392157 13.814321,5.21764706 13.8725926,5.16666667 C13.9634568,5.05392157 13.9881481,4.98333333 13.9782716,4.86078431 C13.9782716,4.7754902 13.8528395,4.68921569 13.757037,4.66078431 C13.6879012,4.63431373 13.4755556,4.63431373 13.3264198,4.46764706 C13.2967901,4.42352941 13.2444444,4.38235294 13.2197531,4.3254902 C13.1476543,4.22843137 13.0320988,4.20098039 12.9738272,4.10490196 C12.905679,4.01960784 12.8622222,3.88333333 12.7516049,3.88333333 C12.428642,3.88333333 12.108642,3.80980392 11.9496296,3.53137255 C11.891358,3.42058824 11.891358,3.28431373 11.7955556,3.18627451 C11.6790123,3.03431373 11.548642,3.01470588 11.4034568,2.89019608 C11.3214815,2.81764706 11.1674074,2.7245098 11.065679,2.70980392 C10.8869136,2.68039216 10.745679,2.59901961 10.5777778,2.63921569 C10.5145679,2.65098039 10.4948148,2.7245098 10.4177778,2.70980392 C10.3120988,2.69019608 10.211358,2.73431373 10.0948148,2.75098039 C10.0948148,2.69411765 10.022716,2.69411765 10.002963,2.65098039 C9.98814815,2.51372549 10.0365432,2.3745098 9.98814815,2.24705882 C9.94962963,2.08137255 9.81037037,1.94215686 9.64049383,1.85588235 C9.5654321,1.8127451 9.47160494,1.82058824 9.37481481,1.82843137 C9.28888889,1.83529412 9.20296296,1.84215686 9.12493827,1.81470588 C8.99259259,1.76372549 8.94024691,1.57745098 8.80987654,1.52647059 C8.5145679,1.4254902 8.22024691,1.41078431 7.90716049,1.46764706 C7.88740741,1.47941176 7.88740741,1.50686275 7.85777778,1.52647059 C7.67901235,1.56470588 7.52,1.54803922 7.35012346,1.46764706 C7.14765432,1.36960784 6.95506173,1.25686275 6.72790123,1.2254902 C6.56790123,1.20098039 6.4237037,1.18921569 6.26962963,1.2254902 C6.1145679,1.25686275 5.97037037,1.25686275 5.8291358,1.25686275 C5.62666667,1.24509804 5.42814815,1.2254902 5.21580247,1.18921569 C4.9837037,1.14411765 4.75654321,1.14411765 4.51061728,1.20098039 C4.32691358,1.2254902 4.2637037,1.43823529 4.11950617,1.52647059 C3.89728395,1.65098039 3.61185185,1.60882353 3.38962963,1.47941176 C3.32740741,1.43823529 3.29876543,1.35784314 3.27407407,1.31372549 C3.24049383,1.1745098 3.21580247,1.02254902 3.13481481,0.893137255 C3.09432099,0.832352941 3.02320988,0.81372549 2.94617284,0.81372549 C2.88296296,0.81372549 2.81481481,0.825490196 2.75753086,0.839215686 Z M10.877037,21.4392157 C10.877037,21.4372549 10.8780247,21.4362745 10.8780247,21.4343137 C10.8780247,21.4362745 10.877037,21.4372549 10.877037,21.4392157 Z" id="path-11"></path>
        <path d="M17.2760494,3.31862745 C17.282963,3.41568627 17.1832099,3.41078431 17.0637037,3.40686275 C16.8997531,3.4 16.7002469,3.39411765 16.7002469,3.65392157 C17.1358025,3.74901961 17.3916049,3.89803922 17.6128395,4.12058824 C18.1896296,4.79019608 18.9995062,5.56960784 20.348642,6.22058824 C21.517037,6.78529412 23.7580247,6.90980392 25.8311111,6.10980392 C26.9896296,5.6627451 28.1925926,5.11764706 29.3955556,4.64313725 C30.322963,4.26960784 31.897284,3.6745098 33.0419753,3.44803922 C34.0661728,3.34019608 35.1437037,3.23823529 36.1580247,3.70882353 C36.562963,3.89803922 37.3076543,4.58431373 37.5150617,4.8627451 C37.9407407,5.43529412 38.0474074,5.96372549 37.9259259,7.00588235 C37.9061728,7.22745098 37.7135802,7.57647059 37.5634568,7.78431373 C37.148642,8.37843137 36.7081481,8.71372549 35.8785185,9.23235294 C35.202963,9.65490196 34.2014815,10.1078431 33.0419753,9.67745098 C29.8301235,8.11764706 26.902716,8.15686275 24.3525926,8.6745098 C21.9081481,9.17647059 20.6567901,10.1441176 17.677037,9.99803922 C16.2795062,9.92843137 14.6479012,9.56960784 13.5041975,8.9 C13.2760494,8.78823529 13.0251852,8.82647059 12.8217284,8.9 C12.6340741,9.01176471 12.4740741,9.1245098 12.4740741,9.1245098 C12.2479012,9.67745098 12.5896296,9.95392157 12.8217284,10.5156863 C12.9718519,10.8892157 13.068642,11.0754902 13.1407407,11.3490196 C13.2612346,11.7843137 13.2760494,12.1343137 13.0538272,12.4666667 C12.8217284,12.9147059 12.2479012,13.2460784 12.0246914,13.8068627 C12.0246914,14.0313725 12.0246914,14.3666667 11.9091358,14.5911765 C11.4607407,15.3735294 11.2187654,16.2607843 11.1071605,17.0460784 C10.9135802,17.5156863 9.93283951,17.3568627 9.14567901,17.2901961 L9.04,17.577451 C9.04493827,17.5813725 9.04888889,17.5941176 9.04888889,17.6039216 C9.04888889,17.7186275 8.71604938,17.8254902 8.71604938,17.9392157 C8.71604938,18.3862745 8.5362963,18.8235294 8.48,19.2813725 C8.36345679,20.172549 8.59555556,21.0627451 8.48,21.9607843 C8.36345679,22.1833333 8.14518519,22.4029412 8.02962963,22.4029412 C7.00148148,22.4029412 7.00148148,23.4127451 6.65876543,24.0803922 C6.08395062,25.5294118 6.83160494,26.3872549 5.79851852,28.6764706 C5.44098765,30.1990196 4.94419753,31.2235294 3.91506173,31.7813725 C3.23358025,32.1196078 2.44148148,31.8931373 1.74617284,32.2313725 C1.41234568,32.4539216 0.958024691,32.7901961 0.838518519,33.1235294 C0.712098765,33.495098 0.606419753,33.7 0.606419753,33.9029412 C0.606419753,34.1460784 0.872098765,34.1284314 0.991604938,34.1284314 C1.3254321,33.9029412 1.57234568,33.0284314 1.98222222,33.2333333 C2.38320988,33.4392157 2.09876543,33.6764706 1.98222222,34.0137255 C1.98222222,34.1284314 2.20938272,34.3509804 2.44148148,34.2382353 C2.6637037,34.0137255 2.6637037,34.0137255 2.85234568,33.7343137 C3.05975309,33.4215686 3.23358025,33.1235294 3.5762963,33.1235294 C3.69185185,33.1235294 3.80839506,33.2333333 3.80839506,33.3460784 C3.80839506,33.6764706 3.61481481,33.9666667 3.91506173,34.2382353 C4.12740741,34.4264706 4.46518519,34.4068627 4.55703704,34.3509804 C4.92938272,34.1666667 5.05975309,33.795098 5.29185185,33.795098 C5.97728395,33.795098 6.43160494,34.0519608 7.10716049,33.8303922 C7.2237037,33.7176471 7.5417284,33.4529412 7.57037037,33.3460784 C7.70666667,32.8421569 7.79851852,32.4539216 7.79851852,32.0088235 C7.79851852,31.6705882 7.91506173,31.2235294 8.02962963,30.7784314 C8.25679012,30.3333333 8.83259259,30.2186275 9.16641975,29.8862745 L9.16641975,29.5490196 C9.28592593,29.3294118 9.7362963,29.3294118 9.85185185,29.1039216 C9.96246914,28.2107843 10.7693827,26.2019608 10.8898765,26.2019608 C11.2859259,25.6598039 10.2034568,24.9715686 10.7693827,24.527451 C10.8681481,24.477451 11.0162963,24.4911765 11.1585185,24.504902 C11.3461728,24.522549 11.5239506,24.5401961 11.5664198,24.4117647 C11.6918519,24.3068627 11.5565432,23.8941176 11.705679,23.6921569 C11.8034568,23.5578431 11.9397531,23.5588235 12.0602469,23.5598039 C12.1422222,23.5607843 12.2182716,23.5617647 12.2716049,23.5196078 C12.5708642,23.2803922 12.3239506,23.0823529 12.3397531,22.8156863 C12.5896296,19.8941176 12.691358,19.1843137 12.8997531,18.4980392 C12.9432099,18.3156863 13.2039506,18.1970588 13.2385185,18.3862745 C13.3195062,18.7578431 13.0874074,19.7764706 12.9530864,20.7470588 C12.8069136,21.8382353 12.7061728,23.0068627 13.0093827,23.2960784 C13.1980247,23.4813725 13.4528395,23.2843137 13.7402469,23.0882353 C13.9762963,22.9264706 14.2340741,22.7656863 14.4928395,22.8156863 C14.6083951,22.9254902 14.8750617,22.854902 14.9916049,22.854902 C15.5604938,22.5186275 15.7925926,21.6254902 16.3624691,22.0686275 C16.5846914,22.1833333 16.8167901,22.5519608 17.1595062,22.4411765 C17.2760494,22.3294118 17.545679,22.0686275 17.6523457,22.0686275 C17.9802469,22.0686275 20.8691358,20.0431373 24.8395062,19.0754902 C24.9748148,19.0431373 25.2118519,19.0088235 25.3046914,18.9068627 C25.5496296,18.6107843 24.8888889,18.1588235 25.0380247,17.7362745 C25.2839506,17.0264706 24.8217284,16.8803922 24.7871605,16.5980392 C24.7091358,16.0411765 24.5896296,15.8186275 24.5896296,15.3735294 C24.5896296,15.0343137 25.2651852,14.8676471 25.1496296,14.4196078 C25.1496296,14.0882353 24.9995062,13.6960784 25.1496296,13.4882353 C25.4439506,13.0803922 25.8311111,13.1372549 26.2844444,13.1372549 C26.4059259,13.1372549 26.6518519,13.3176471 26.4730864,13.5107843 C25.922963,14.1411765 25.6474074,14.9284314 25.7195062,15.5921569 C25.7718519,16.1137255 25.7195062,16.3764706 25.9466667,16.8264706 C26.4059259,18.0539216 27.1683951,19.1843137 28.8928395,19.2813725 C29.0044444,19.2882353 29.4587654,19.4637255 29.6711111,19.65 C30.8740741,20.7186275 31.6562963,21.7352941 32.9066667,22.7382353 C33.708642,23.2960784 34.6123457,23.6127451 35.4153086,23.9529412 C36.2162963,24.2843137 36.7516049,24.4343137 37.5496296,24.654902 C37.7758025,24.7686275 38.1817284,24.9529412 38.2696296,25.3078431 C38.3792593,25.722549 38.322963,26.2754902 38.3466667,26.7019608 C38.3792593,27.1754902 38.5007407,27.5176471 38.5007407,27.9892157 C38.5007407,28.2107843 38.2696296,28.5441176 38.0474074,28.6568627 C37.4666667,28.8794118 36.7516049,28.822549 36.1767901,29.045098 C35.7283951,29.3872549 35.3076543,29.8862745 34.8483951,30.2186275 C34.7190123,30.4754902 34.8148148,30.5980392 34.8483951,30.6901961 C35.3748148,30.8039216 35.7669136,30.8009804 36.562963,30.7568627 C37.1387654,30.404902 37.3748148,29.9588235 37.8340741,29.7362745 C38.1817284,29.6215686 38.2696296,29.7735294 38.1580247,30.1117647 C38.0474074,30.3333333 37.6997531,30.4441176 37.8202469,30.6696078 C38.0474074,30.8911765 38.3703704,30.845098 38.7279012,30.8911765 C39.4666667,30.9813725 40.2637037,31.1058824 40.8395062,30.8519608 C41.1861728,30.7058824 40.8,30.3333333 40.9106173,29.9960784 C41.0281481,29.8862745 41.225679,29.6617647 41.2395062,29.5490196 C41.3076543,29.1039216 40.665679,28.6568627 41.0034568,28.2107843 C41.2395062,27.7617647 41.8874074,27.7245098 41.5832099,26.9843137 C41.4044444,26.7598039 41.1328395,26.8598039 41.0518519,26.6833333 C40.9007407,26.3980392 40.9106173,25.9235294 40.8148148,25.495098 C40.742716,25.1490196 41.0607407,24.8235294 40.988642,24.5852941 C40.8730864,24.1529412 40.345679,24.1019608 39.9259259,23.854902 C39.4182716,23.5568627 38.9451852,23.1343137 39.0706173,22.5186275 C39.1358025,22.2156863 39.5180247,22.3294118 39.8716049,22.4431373 C40.1698765,22.5382353 40.4474074,22.6343137 40.5007407,22.4813725 C40.5590123,22.1833333 40.2439506,21.7794118 40.1185185,21.3833333 C40.0217284,21.0627451 39.9841975,20.395098 39.7283951,20.3588235 C39.2582716,20.2862745 38.3851852,20.2833333 37.8202469,19.9509804 C37.3076543,19.6960784 37.5002469,19.0921569 38.4039506,18.9627451 C38.582716,18.9382353 38.5491358,18.7578431 38.4039506,18.6284314 C37.8340741,18.1803922 36.9550617,18.4294118 36.562963,17.8254902 C36.4237037,17.622549 36.4967901,17.3813725 36.6607407,17.1558824 C36.6607407,16.9529412 36.4158025,16.9598039 36.1896296,16.9676471 C36.108642,16.9696078 36.0296296,16.972549 35.9654321,16.9656863 C35.6355556,16.9264706 35.3520988,16.8803922 35.4153086,16.4862745 C35.4153086,16.2607843 35.8350617,16.1901961 35.7283951,15.8529412 C35.6069136,15.6303922 35.0281481,15.445098 35.0804938,15.2617647 C35.1091358,15.1098039 35.3995062,14.9480392 35.6464198,14.8823529 C35.7965432,14.8509804 36.0948148,14.9264706 35.9851852,14.6990196 C35.7669136,14.2539216 34.9935802,14.1392157 35.0804938,13.3598039 C35.1437037,12.5960784 36.3318519,11.4715686 37.3609877,10.7941176 C38.8296296,9.80686275 39.3175309,8.56470588 39.414321,7.9 C39.5298765,7.22941176 39.5051852,6.66764706 39.414321,6.22058824 C39.2691358,5.55490196 39.0903704,5.10980392 38.7279012,4.56470588 C38.3269136,3.96862745 37.6464198,3.42352941 37.0518519,3.13333333 C36.3269136,2.78235294 35.5446914,2.5627451 34.8641975,2.51568627 C33.708642,2.44509804 33.0232099,2.42352941 31.9950617,2.65294118 C31.0804938,2.87352941 30.2024691,3.28235294 29.2553086,3.65392157 C27.337284,4.41862745 24.4059259,6.01764706 23.362963,5.53529412 C22.6953086,5.22352941 22.7634568,4.36176471 21.8350617,3.65392157 C20.4108642,2.57254902 19.8024691,2.79803922 18.7535802,1.30784314 C18.5214815,0.978431373 18.4928395,0.660784314 18.377284,0.323529412 C17.5792593,1.21568627 17.1022222,1.77352941 17.2760494,3.31862745 Z" id="path-13"></path>
        <path d="M7.27901235,0.934313725 C6.95111111,0.976470588 6.57481481,1.10098039 6.23111111,1.20980392 C6.11061728,1.32352941 5.88839506,1.54509804 5.88839506,1.76764706 C5.77283951,2.43529412 5.77283951,3.21764706 6.00395062,3.89117647 C6.34271605,5.00490196 6.65185185,6.14411765 6.89382716,7.26176471 C6.97975309,7.71176471 6.69037037,8.35686275 6.34271605,8.57843137 C5.88839506,9.13431373 5.11506173,8.96568627 4.31901235,9.07647059 C3.97530864,9.07647059 3.48740741,9.13431373 3.14962963,9.24901961 C2.80296296,9.46666667 2.35259259,9.58333333 2.23209877,9.91666667 C2.23209877,10.0294118 1.89432099,10.3294118 1.89432099,10.4421569 C1.43506173,10.8892157 0.892839506,11.1176471 0.666666667,11.7843137 C0.970864198,11.877451 1.27012346,11.9 1.54567901,11.7843137 C1.77777778,11.4794118 1.91802469,11.1 2.23209877,11.0343137 C2.68641975,10.8107843 2.5708642,11.4843137 2.5708642,11.8166667 C2.91851852,11.7058824 3.14962963,11.3686275 3.37185185,11.1460784 C3.48740741,11.1460784 3.72444444,11.0852941 3.72444444,11.1970588 C3.72444444,11.5333333 3.54962963,11.7333333 3.63259259,11.9803922 C4.34271605,12.1764706 5.28987654,12.1470588 6.31802469,11.9235294 C6.73876543,11.6431373 6.81185185,11.1460784 7.1437037,10.5872549 C7.37185185,10.3647059 7.59407407,10.8107843 7.82617284,10.8107843 C7.82617284,10.3647059 7.59407407,9.80882353 8.05333333,9.80882353 C8.28444444,9.75784314 8.52049383,9.60098039 8.71901235,9.49901961 C8.98962963,9.34019608 9.17333333,9.22156863 9.31358025,9.02745098 C9.43012346,8.69019608 9.08148148,8.24411765 9.31358025,7.79705882 C9.43012346,7.68235294 9.47259259,7.20882353 9.64740741,7.35 C10.0237037,7.65196078 10.4483951,7.79705882 10.6795062,8.24411765 C10.7298765,8.19509804 10.802963,8.23333333 10.8582716,8.27156863 C10.9283951,8.32058824 10.9718519,8.36862745 10.908642,8.24411765 C10.908642,7.90980392 10.6795062,7.5745098 10.908642,7.23627451 C11.0232099,6.90196078 11.0232099,6.45784314 11.0232099,6.1245098 C11.1397531,5.9 11.1397531,5.45294118 10.7920988,5.11568627 C10.6795062,4.89215686 10.7920988,4.55784314 10.7920988,4.33431373 C10.6795062,4 10.3417284,3.66470588 10.2212346,3.33333333 C9.99901235,2.65980392 10.3664198,1.59411765 10.5066667,1.23235294 C10.2162963,0.981372549 9.29580247,0.865686275 8.40395062,0.865686275 C8.00395062,0.865686275 7.60888889,0.889215686 7.27901235,0.934313725 Z" id="path-15"></path>
    </defs>
    <g id="Page-1" stroke="none" stroke-width="1" fill="none" fill-rule="evenodd">
        <g id="Brisbane_Lions">
            <g id="Group-2">
                <polygon id="Fill-143" fill="#8B0042" points="0 50 80 50 80 0 0 0"></polygon>
                <polygon id="Fill-144" fill="#255395" points="0 12 80 12 80 0 0 0"></polygon>
                <g id="Group-147" transform="translate(10.864198, 36.870588)">
                    <mask id="mask-2" fill="white">
                        <use xlink:href="#path-1"></use>
                    </mask>
                    <g id="Clip-146"></g>
                    <polygon id="Fill-145" fill="#FFC656" mask="url(#mask-2)" points="-5.61283951 8.51960784 18.5965432 8.51960784 18.5965432 -5.2254902 -5.61283951 -5.2254902"></polygon>
                </g>
                <g id="Group-150" transform="translate(10.864198, 39.811765)">
                    <mask id="mask-4" fill="white">
                        <use xlink:href="#path-3"></use>
                    </mask>
                    <g id="Clip-149"></g>
                    <polygon id="Fill-148" fill="#FFC656" mask="url(#mask-4)" points="-5.63259259 8.84705882 18.6004938 8.84705882 18.6004938 -5.21078431 -5.63259259 -5.21078431"></polygon>
                </g>
                <g id="Group-153" transform="translate(14.814815, 29.027451)">
                    <mask id="mask-6" fill="white">
                        <use xlink:href="#path-5"></use>
                    </mask>
                    <g id="Clip-152"></g>
                    <polygon id="Fill-151" fill="#FFC656" mask="url(#mask-6)" points="-5.14469136 12.1127451 21.1101235 12.1127451 21.1101235 -5.02352941 -5.14469136 -5.02352941"></polygon>
                </g>
                <g id="Group-156" transform="translate(16.790123, 11.380392)">
                    <mask id="mask-8" fill="white">
                        <use xlink:href="#path-7"></use>
                    </mask>
                    <g id="Clip-155"></g>
                    <polygon id="Fill-154" fill="#FFC656" mask="url(#mask-8)" points="-5.52296296 18.5372549 17.8301235 18.5372549 17.8301235 -4.80294118 -5.52296296 -4.80294118"></polygon>
                </g>
                <g id="Group-159" transform="translate(17.777778, 19.223529)">
                    <mask id="mask-10" fill="white">
                        <use xlink:href="#path-9"></use>
                    </mask>
                    <g id="Clip-158"></g>
                    <polygon id="Fill-157" fill="#FFC656" mask="url(#mask-10)" points="-4.92839506 6.69117647 7.10716049 6.69117647 7.10716049 -5.2745098 -4.92839506 -5.2745098"></polygon>
                </g>
                <g id="Group-162" transform="translate(21.728395, 7.458824)">
                    <mask id="mask-12" fill="white">
                        <use xlink:href="#path-11"></use>
                    </mask>
                    <g id="Clip-161"></g>
                    <polygon id="Fill-160" fill="#FFC656" mask="url(#mask-12)" points="-5.42123457 30.0823529 22.0138272 30.0823529 22.0138272 -4.80588235 -5.42123457 -4.80588235"></polygon>
                </g>
                <g id="Group-165" transform="translate(24.691358, 8.439216)">
                    <mask id="mask-14" fill="white">
                        <use xlink:href="#path-13"></use>
                    </mask>
                    <g id="Clip-164"></g>
                    <polygon id="Fill-163" fill="#FFC656" mask="url(#mask-14)" points="-5.05580247 40.0098039 47.3234568 40.0098039 47.3234568 -5.29607843 -5.05580247 -5.29607843"></polygon>
                </g>
                <g id="Group-168" transform="translate(42.469136, 27.066667)">
                    <mask id="mask-16" fill="white">
                        <use xlink:href="#path-15"></use>
                    </mask>
                    <g id="Clip-167"></g>
                    <polygon id="Fill-166" fill="#FFC656" mask="url(#mask-16)" points="-4.9945679 17.7303922 16.7535802 17.7303922 16.7535802 -4.75294118 -4.9945679 -4.75294118"></polygon>
                </g>
            </g>
        </g>
    </g>
</svg>