<?xml version="1.0" encoding="UTF-8" standalone="no"?>

<!-- This is an official AFL Team logo, they own all rights to this, please do not sue me -->

<svg width="80px" height="50px" viewBox="0 0 80 50" version="1.1" xmlns="http://www.w3.org/2000/svg" xmlns:xlink="http://www.w3.org/1999/xlink">
    <!-- Generator: Sketch 41.2 (35397) - http://www.bohemiancoding.com/sketch -->
    <title>Carlton</title>
    <desc>Created with Sketch.</desc>
    <defs></defs>
    <g id="Page-1" stroke="none" stroke-width="1" fill="none" fill-rule="evenodd">
        <g id="Carlton">
            <g id="Group-3">
                <polygon id="Fill-140" fill="#002E51" points="0 50 80 50 80 0 0 0"></polygon>
                <path d="M41.021037,43.3857843 C40.4699259,43.0122549 40.3049877,42.6230392 40.2575802,42.3740196 C40.2536296,42.3014706 40.252642,42.2328431 40.2506667,42.1740196 C40.2131358,40.8014706 40.461037,36.0573529 40.461037,36.0573529 C40.461037,36.0573529 38.5281975,35.7504902 36.7968395,34.9122549 L36.6852346,42.1093137 C36.6852346,42.1093137 36.6881975,42.1161765 36.6881975,42.1269608 C36.6872099,42.1436275 36.6832593,42.1573529 36.6832593,42.1740196 C36.6822716,42.2328431 36.6793086,42.3014706 36.6763457,42.3740196 C36.6299259,42.6230392 36.464,43.0122549 35.9148642,43.3857843 C35.2333827,43.8465686 35.1711605,44.1240196 35.235358,45.0789216 C35.3005432,46.0357843 35.6778272,46.4769608 36.4491852,46.4446078 C36.5005432,46.4426471 36.5657284,46.4416667 36.6388148,46.4397059 L36.6388148,46.4446078 C36.6388148,46.4446078 37.421037,46.4367647 38.466963,46.4328431 C39.5128889,46.4367647 40.2951111,46.4446078 40.2951111,46.4446078 L40.2951111,46.4397059 C40.3691852,46.4416667 40.4333827,46.4426471 40.4847407,46.4446078 C41.2580741,46.4769608 41.635358,46.0357843 41.7005432,45.0789216 C41.7647407,44.1240196 41.7015309,43.8465686 41.021037,43.3857843 L41.021037,43.3857843 Z M51.2185679,20.4357843 C51.2185679,20.4357843 51.3054815,19.6710784 49.8565926,16.7279412 C49.8565926,16.7279412 49.4328889,15.7142157 48.2378272,15.3916667 C47.3222716,15.1455882 46.1459753,14.8563725 46.1459753,14.8563725 C46.1459753,14.8563725 45.0625185,14.2789216 43.852642,14.0034314 L43.8575802,13.9887255 C43.8575802,13.9887255 42.3444938,13.6132353 40.9331358,13.5887255 L40.8827654,16.8397059 C40.8827654,16.8397059 41.2709136,16.697549 42.7652346,16.7377451 C43.4773333,16.8053922 44.7514074,16.820098 46.5637531,18.1730392 C48.755358,19.8093137 49.5504198,21.0730392 49.5504198,21.0730392 C49.5504198,21.0730392 50.1923951,22.029902 50.7691852,21.8397059 C51.3489383,21.6465686 51.2185679,20.4357843 51.2185679,20.4357843 L51.2185679,20.4357843 Z M54.9894321,30.7730392 C54.1528889,30.1955882 53.5928889,30.8406863 53.478321,31.002451 C53.478321,31.002451 50.4541235,37.4897059 42.966716,37.1671569 C42.966716,37.1671569 42.9054815,37.1602941 42.8116543,37.1642157 C42.141037,37.1220588 41.1889383,37.0485294 41.0605432,36.952451 L40.9449877,40.2279412 C40.9449877,40.2279412 41.7123951,40.3093137 42.4709136,40.3553922 C42.5528889,40.3661765 42.6477037,40.3720588 42.7593086,40.375 C43.5030123,40.397549 50.9430123,40.8828431 55.341037,32.3191176 C55.341037,32.3191176 55.8279506,31.3504902 54.9894321,30.7730392 L54.9894321,30.7730392 Z M36.0491852,39.5661765 L36.0936296,35.6710784 C35.6877037,35.5446078 35.1514074,35.2122549 34.6091852,34.8269608 C34.5351111,34.7642157 34.4600494,34.7014706 34.3760988,34.6426471 C32.652642,33.4328431 27.8822716,29.2838235 29.5198025,21.4897059 C31.158321,13.6946078 40.2151111,10.8259804 45.9504198,12.547549 C51.6817778,14.2681373 52.6427654,18.1867647 53.1780741,19.0995098 C53.5049877,19.6642157 53.8990617,20.2946078 54.6220247,20.1985294 C55.3449877,20.1034314 55.0556049,18.5720588 55.0556049,18.5720588 L53.6541235,13.5102941 C53.6541235,13.5102941 53.3291852,12.1495098 51.7835062,11.6210784 C50.5054815,11.1828431 50.141037,11.0112745 49.3311605,10.6034314 C49.3311605,10.6034314 40.121284,4.3504902 29.7598025,12.4995098 C29.7598025,12.4995098 26.0995556,15.7504902 25.0388148,19.5289216 C25.0388148,19.5289216 24.4738765,21.602451 24.4393086,22.3740196 C24.3909136,23.4877451 24.3178272,24.8848039 24.5578272,26.4632353 C24.7849877,27.9553922 26.0916543,34.9112745 32.9005432,38.4955882 L32.9015309,38.5014706 C33.0220247,38.5632353 33.1356049,38.6191176 33.2481975,38.6720588 C33.5395556,38.8171569 33.8348642,38.9573529 34.1449877,39.0877451 C34.1449877,39.0877451 34.2723951,39.1602941 34.4551111,39.2034314 C35.6620247,39.6651961 36.0491852,39.5661765 36.0491852,39.5661765 L36.0491852,39.5661765 Z M36.7375802,6.67794118 L36.7375802,8.23480392 C36.7375802,8.23480392 38.406716,7.67696078 40.2793086,7.67696078 C40.2793086,7.67696078 39.9000494,6.57794118 43.0635062,6.75245098 C46.224,6.92892157 46.6605432,7.07990196 48.4057284,8.38480392 C48.6190617,8.52990196 49.4990617,9.5877451 50.4738765,9.30147059 C51.4931358,9.00245098 50.8778272,8.15833333 50.8778272,8.15833333 L48.8136296,4.70343137 C48.8136296,4.70343137 48.4452346,3.97892157 47.4220247,3.85637255 C46.5193086,3.74656863 45.7074568,3.73480392 44.3790617,3.71519608 L36.5805432,3.68970588 C36.5805432,3.68970588 35.718321,3.64754902 35.689679,4.98186275 C35.6541235,6.3622549 36.3593086,6.22598039 36.7375802,6.67794118 L36.7375802,6.67794118 Z M40.3356049,13.0034314 C40.3356049,13.0034314 38.1311605,12.9397059 36.9430123,14.0230392 L36.8788148,29.0044118 C36.8788148,29.0044118 38.0995556,31.1720588 40.4768395,32.0014706 L40.4116543,26.870098 C40.4116543,26.870098 40.1874568,25.8818627 41.4743704,25.9465686 C42.7593086,26.0093137 42.5222716,26.1073529 43.5523951,27.3063725 C44.2931358,28.1720588 45.0388148,28.125 45.4644938,27.9651961 C46.1242469,27.7191176 46.3889383,27.2720588 46.2081975,26.5161765 C45.8437531,24.9946078 44.8156049,22.0240196 44.8156049,22.0240196 C44.8156049,22.0240196 44.6664691,20.9259804 43.5780741,21.0308824 C42.5341235,21.1328431 42.5331358,21.8338235 42.5331358,21.8338235 C42.5331358,21.8338235 42.5973333,22.7583333 41.4417778,22.7259804 C40.2832593,22.6946078 40.3800494,21.5465686 40.3800494,21.5465686 L40.3356049,13.0034314 Z M31.0733827,25.8573529 C31.3074568,27.8642157 33.7262222,33.6867647 39.4437531,35.2171569 C45.1622716,36.7455882 49.206716,33.9416667 50.3948642,32.2191176 C50.3948642,32.2191176 51.424,31.2318627 50.5568395,30.4651961 C49.689679,29.7014706 48.9815309,30.6563725 48.9509136,30.6259804 C48.9193086,30.5936275 42.9123951,35.1191176 38.2546173,31.6142157 C33.5958519,28.1063725 34.8728889,22.4583333 35.3390617,21.3426471 C35.3390617,21.3426471 35.7558519,20.1416667 36.2595556,19.5161765 L36.2911605,14.8710784 C36.2911605,14.8710784 32.3909136,17.1161765 31.3074568,21.8426471 L31.3133827,21.8416667 C30.9341235,23.2191176 30.8541235,23.9504902 31.0733827,25.8573529 L31.0733827,25.8573529 Z" id="Fill-141" fill="#FEFEFE"></path>
            </g>
        </g>
    </g>
</svg>