<?xml version="1.0" encoding="UTF-8" standalone="no"?>

<!-- This is an official AFL Team logo, they own all rights to this, please do not sue me -->

<svg width="80px" height="50px" viewBox="0 0 80 50" version="1.1" xmlns="http://www.w3.org/2000/svg" xmlns:xlink="http://www.w3.org/1999/xlink">
    <!-- Generator: Sketch 41.2 (35397) - http://www.bohemiancoding.com/sketch -->
    <title>GWS_Giants</title>
    <desc>Created with Sketch.</desc>
    <defs></defs>
    <g id="Page-1" stroke="none" stroke-width="1" fill="none" fill-rule="evenodd">
        <g id="GWS_Giants">
            <g id="Group-10" transform="translate(0.000000, -1.000000)">
                <polygon id="Fill-48" fill="#FF7900" points="0 51 80 51 80 1 0 1"></polygon>
                <g id="Group" transform="translate(12.481445, 0.169922)">
                    <polygon id="Fill-49" fill="#313B42" points="56.5805581 0.610193598 20.3462496 50.8236234 67.6466161 50.8236234 67.6466161 0.610193598"></polygon>
                    <polygon id="Fill-50" fill="#313B42" points="11.8759299 31.1152539 46.1475256 31.1152539 46.1475256 19.0640307 11.8759299 19.0640307"></polygon>
                    <path d="M26.2896272,25.7319725 L25.3082708,27.0847223 C24.7579019,27.865039 23.8514119,28.3340324 22.8872545,28.3340324 L14.023684,28.3340324 L18.6077313,21.9770122 C19.1651822,21.220798 20.0575083,20.7698814 20.9973847,20.7698814 L41.9842476,20.7698814 L54.1813947,3.85197262 L22.6899715,3.85197262 C10.5383513,3.85197262 0.688365866,13.6305359 0.688365866,25.6897932 C0.688365866,37.7530676 10.5383513,47.5306266 22.6899715,47.5306266 L38.4088728,25.7279554 L26.2896272,25.7319725 Z" id="Fill-51" fill="#FFFFFF"></path>
                </g>
            </g>
        </g>
    </g>
</svg>